<svg width="35" height="35" viewBox="0 0 35 35" fill="none" xmlns="http://www.w3.org/2000/svg">
<path d="M17.5 2.91666L17.9725 2.91812L18.4363 2.92396L19.3346 2.94875L19.7706 2.96771L20.615 3.01729L21.4215 3.08437C28.3996 3.76104 31.239 6.60041 31.9156 13.5785L31.9827 14.385L32.0323 15.2294C32.0396 15.3723 32.0469 15.5181 32.0513 15.6654L32.076 16.5637L32.0833 17.5L32.076 18.4362L32.0513 19.3346L32.0323 19.7706L31.9827 20.615L31.9156 21.4215C31.239 28.3996 28.3996 31.239 21.4215 31.9156L20.615 31.9827L19.7706 32.0323C19.6277 32.0396 19.4819 32.0469 19.3346 32.0512L18.4363 32.076L17.5 32.0833L16.5638 32.076L15.6654 32.0512L15.2294 32.0323L14.385 31.9827L13.5785 31.9156C6.60042 31.239 3.76105 28.3996 3.08438 21.4215L3.0173 20.615L2.96771 19.7706C2.96062 19.6253 2.9543 19.48 2.94876 19.3346L2.92396 18.4362C2.91959 18.13 2.91667 17.8179 2.91667 17.5L2.91813 17.0275L2.92396 16.5637L2.94876 15.6654L2.96771 15.2294L3.0173 14.385L3.08438 13.5785C3.76105 6.60041 6.60042 3.76104 13.5785 3.08437L14.385 3.01729L15.2294 2.96771C15.3723 2.96041 15.5181 2.95312 15.6654 2.94875L16.5638 2.92396C16.87 2.91958 17.1821 2.91666 17.5 2.91666ZM17.5 11.6667C17.1132 11.6667 16.7423 11.8203 16.4688 12.0938C16.1953 12.3673 16.0417 12.7382 16.0417 13.125V16.0417H13.125L12.9544 16.0519C12.5853 16.0958 12.2469 16.279 12.0083 16.564C11.7697 16.849 11.649 17.2144 11.6708 17.5855C11.6926 17.9565 11.8552 18.3053 12.1255 18.5604C12.3958 18.8156 12.7533 18.9579 13.125 18.9583H16.0417V21.875L16.0519 22.0456C16.0958 22.4147 16.279 22.7531 16.564 22.9917C16.849 23.2303 17.2144 23.351 17.5855 23.3292C17.9565 23.3074 18.3053 23.1448 18.5604 22.8745C18.8156 22.6042 18.9579 22.2467 18.9583 21.875V18.9583H21.875L22.0456 18.9481C22.4147 18.9042 22.7531 18.721 22.9917 18.436C23.2303 18.151 23.351 17.7856 23.3292 17.4145C23.3074 17.0435 23.1448 16.6947 22.8745 16.4396C22.6042 16.1844 22.2467 16.0421 21.875 16.0417H18.9583V13.125L18.9481 12.9544C18.9063 12.5996 18.7358 12.2726 18.4689 12.0352C18.202 11.7978 17.8572 11.6667 17.5 11.6667Z" fill="#06BB93"/>
</svg>
