<svg width="30" height="30" viewBox="0 0 30 30" fill="none" xmlns="http://www.w3.org/2000/svg">
<path d="M15 25L11.25 26.25V15.625L5.65 9.465C5.23181 9.00491 5.00007 8.4055 5 7.78375V5H25V7.715C24.9999 8.37799 24.7364 9.01377 24.2675 9.4825L18.75 15V16.875M23.7512 26.25C23.0882 26.25 22.4523 25.9866 21.9835 25.5178C21.5146 25.0489 21.2512 24.413 21.2512 23.75C21.2512 23.087 21.5146 22.4511 21.9835 21.9822C22.4523 21.5134 23.0882 21.25 23.7512 21.25M23.7512 26.25C24.4143 26.25 25.0501 25.9866 25.519 25.5178C25.9878 25.0489 26.2512 24.413 26.2512 23.75C26.2512 23.087 25.9878 22.4511 25.519 21.9822C25.0501 21.5134 24.4143 21.25 23.7512 21.25M23.7512 26.25V28.125M23.7512 21.25V19.375M27.54 21.5625L25.9163 22.5M21.5875 25L19.9625 25.9375M19.9625 21.5625L21.5875 22.5M25.9163 25L27.5413 25.9375" stroke="#06BB93" stroke-width="2" stroke-linecap="round" stroke-linejoin="round"/>
</svg>
