<svg width="170" height="175" viewBox="0 0 170 175" fill="none" xmlns="http://www.w3.org/2000/svg">
<ellipse cx="85" cy="87.5" rx="85" ry="87.5" fill="#1E1E27"/>
<path d="M82.5 128C79.8334 128 77.355 127.333 75.065 126C72.775 124.667 70.92 122.833 69.5 120.5C68.5833 118.833 68.5633 117.167 69.44 115.5C70.3167 113.833 71.67 113 73.5 113C74.5833 113 75.5417 113.333 76.375 114C77.2084 114.667 77.9584 115.417 78.625 116.25C79.0417 116.833 79.605 117.272 80.315 117.565C81.025 117.858 81.7534 118.003 82.5 118C83.9167 118 85.105 117.52 86.065 116.56C87.025 115.6 87.5034 114.413 87.5 113C87.4967 111.587 87.0167 110.4 86.06 109.44C85.1034 108.48 83.9167 108 82.5 108H40C38.5834 108 37.3967 107.52 36.44 106.56C35.4834 105.6 35.0034 104.413 35 103C34.9967 101.587 35.4767 100.4 36.44 99.44C37.4034 98.48 38.59 98 40 98H82.5C86.6667 98 90.2084 99.4583 93.125 102.375C96.0417 105.292 97.5 108.833 97.5 113C97.5 117.167 96.0417 120.708 93.125 123.625C90.2084 126.542 86.6667 128 82.5 128ZM40 78C38.5834 78 37.3967 77.52 36.44 76.56C35.4834 75.6 35.0034 74.4133 35 73C34.9967 71.5867 35.4767 70.4 36.44 69.44C37.4034 68.48 38.59 68 40 68H102.5C104.583 68 106.355 67.2717 107.815 65.815C109.275 64.3583 110.003 62.5867 110 60.5C109.997 58.4133 109.268 56.6433 107.815 55.19C106.362 53.7367 104.59 53.0067 102.5 53C101.167 53 99.9167 53.3133 98.75 53.94C97.5834 54.5667 96.6667 55.4617 96 56.625C95.4167 57.625 94.7084 58.5217 93.875 59.315C93.0417 60.1083 92.0417 60.5033 90.875 60.5C89.2084 60.5 87.855 59.875 86.815 58.625C85.775 57.375 85.5034 56.0417 86 54.625C87.1667 51.125 89.2717 48.3133 92.315 46.19C95.3584 44.0667 98.7534 43.0033 102.5 43C107.333 43 111.458 44.7083 114.875 48.125C118.292 51.5417 120 55.6667 120 60.5C120 65.3333 118.292 69.4583 114.875 72.875C111.458 76.2917 107.333 78 102.5 78H40ZM124.75 116.5C123.083 117.25 121.458 117.147 119.875 116.19C118.292 115.233 117.5 113.837 117.5 112C117.5 110.833 117.897 109.855 118.69 109.065C119.483 108.275 120.378 107.587 121.375 107C122.542 106.333 123.438 105.417 124.065 104.25C124.692 103.083 125.003 101.833 125 100.5C125 98.4167 124.272 96.6467 122.815 95.19C121.358 93.7333 119.587 93.0033 117.5 93H40C38.5834 93 37.3967 92.52 36.44 91.56C35.4834 90.6 35.0034 89.4133 35 88C34.9967 86.5867 35.4767 85.4 36.44 84.44C37.4034 83.48 38.59 83 40 83H117.5C122.333 83 126.458 84.7083 129.875 88.125C133.292 91.5417 135 95.6667 135 100.5C135 104 134.083 107.188 132.25 110.065C130.417 112.942 127.917 115.087 124.75 116.5Z" fill="white"/>
</svg>
