<svg width="60" height="60" viewBox="0 0 60 60" fill="none" xmlns="http://www.w3.org/2000/svg">
<path d="M22.6875 52.5C22.0208 52.5 21.3858 52.375 20.7825 52.125C20.1792 51.875 19.6475 51.5208 19.1875 51.0625L8.9375 40.8125C8.47917 40.3542 8.125 39.8225 7.875 39.2175C7.625 38.6125 7.5 37.9783 7.5 37.315V22.69C7.5 22.0233 7.625 21.3883 7.875 20.785C8.125 20.1817 8.47917 19.65 8.9375 19.19L19.1875 8.94C19.6458 8.48167 20.1775 8.1275 20.7825 7.8775C21.3875 7.6275 22.0225 7.50167 22.6875 7.5H37.3125C37.9792 7.5 38.615 7.625 39.22 7.875C39.825 8.125 40.3558 8.47917 40.8125 8.9375L51.0625 19.1875C51.5208 19.6458 51.875 20.1775 52.125 20.7825C52.375 21.3875 52.5 22.0225 52.5 22.6875V37.3125C52.5 37.9792 52.375 38.615 52.125 39.22C51.875 39.825 51.5208 40.3558 51.0625 40.8125L40.8125 51.0625C40.3542 51.5208 39.8225 51.875 39.2175 52.125C38.6125 52.375 37.9775 52.5 37.3125 52.5H22.6875ZM22.75 47.5H37.25L47.5 37.25V22.75L37.25 12.5H22.75L12.5 22.75V37.25L22.75 47.5ZM30 33.5L35.375 38.875C35.8333 39.3333 36.4167 39.5625 37.125 39.5625C37.8333 39.5625 38.4167 39.3333 38.875 38.875C39.3333 38.4167 39.5625 37.8333 39.5625 37.125C39.5625 36.4167 39.3333 35.8333 38.875 35.375L33.5 30L38.875 24.625C39.3333 24.1667 39.5625 23.5833 39.5625 22.875C39.5625 22.1667 39.3333 21.5833 38.875 21.125C38.4167 20.6667 37.8333 20.4375 37.125 20.4375C36.4167 20.4375 35.8333 20.6667 35.375 21.125L30 26.5L24.625 21.125C24.1667 20.6667 23.5833 20.4375 22.875 20.4375C22.1667 20.4375 21.5833 20.6667 21.125 21.125C20.6667 21.5833 20.4375 22.1667 20.4375 22.875C20.4375 23.5833 20.6667 24.1667 21.125 24.625L26.5 30L21.125 35.375C20.6667 35.8333 20.4375 36.4167 20.4375 37.125C20.4375 37.8333 20.6667 38.4167 21.125 38.875C21.5833 39.3333 22.1667 39.5625 22.875 39.5625C23.5833 39.5625 24.1667 39.3333 24.625 38.875L30 33.5Z" fill="white"/>
</svg>
