<svg width="60" height="60" viewBox="0 0 60 60" fill="none" xmlns="http://www.w3.org/2000/svg">
<path d="M30 18.125C30.4973 18.125 30.9742 18.3225 31.3258 18.6742C31.6775 19.0258 31.875 19.5027 31.875 20V32.5C31.875 32.9973 31.6775 33.4742 31.3258 33.8258C30.9742 34.1775 30.4973 34.375 30 34.375C29.5027 34.375 29.0258 34.1775 28.6742 33.8258C28.3225 33.4742 28.125 32.9973 28.125 32.5V20C28.125 19.5027 28.3225 19.0258 28.6742 18.6742C29.0258 18.3225 29.5027 18.125 30 18.125ZM30 42.5C30.663 42.5 31.2989 42.2366 31.7678 41.7678C32.2366 41.2989 32.5 40.663 32.5 40C32.5 39.337 32.2366 38.7011 31.7678 38.2322C31.2989 37.7634 30.663 37.5 30 37.5C29.337 37.5 28.7011 37.7634 28.2322 38.2322C27.7634 38.7011 27.5 39.337 27.5 40C27.5 40.663 27.7634 41.2989 28.2322 41.7678C28.7011 42.2366 29.337 42.5 30 42.5Z" fill="#FFEA00"/>
<path fill-rule="evenodd" clip-rule="evenodd" d="M20.7349 11.19C23.4149 7.7875 26.2549 5.625 29.9999 5.625C33.7449 5.625 36.5849 7.7875 39.2649 11.19C41.8999 14.54 44.6899 19.49 48.2649 25.8275L49.3549 27.7575C52.3074 32.995 54.6424 37.1325 55.8674 40.45C57.1174 43.845 57.4174 46.925 55.5224 49.6425C53.6849 52.28 50.6174 53.3575 46.7474 53.8675C42.8949 54.375 37.7099 54.375 31.0624 54.375H28.9374C22.2874 54.375 17.1049 54.375 13.2524 53.8675C9.38239 53.3575 6.31489 52.28 4.47739 49.6425C2.58239 46.925 2.87989 43.8425 4.13239 40.45C5.35739 37.13 7.69239 32.995 10.6449 27.7575L11.7349 25.8275C15.3074 19.49 18.0999 14.5375 20.7349 11.19ZM23.6824 13.51C21.2474 16.6025 18.5924 21.3 14.9124 27.825L14.0024 29.4375C10.9374 34.8725 8.75989 38.7475 7.65239 41.75C6.55739 44.715 6.70739 46.285 7.55239 47.5C8.45489 48.79 10.1474 49.675 13.7424 50.15C17.3224 50.62 22.2574 50.625 29.0924 50.625H30.9099C37.7424 50.625 42.6774 50.62 46.2599 50.15C49.8524 49.675 51.5449 48.79 52.4449 47.5C53.2924 46.285 53.4449 44.715 52.3499 41.75C51.2399 38.7475 49.0624 34.8725 45.9974 29.4375L45.0874 27.825C41.4074 21.3 38.7524 16.6025 36.3174 13.51C33.9049 10.45 32.0324 9.375 29.9999 9.375C27.9674 9.375 26.0949 10.4475 23.6824 13.51Z" fill="#FFD900"/>
</svg>
