<svg width="105" height="95" viewBox="0 0 105 95" fill="none" xmlns="http://www.w3.org/2000/svg">
<path d="M104.573 21.4583V34.4792C104.573 43.4579 101.006 52.0688 94.6573 58.4177C88.3084 64.7666 79.6974 68.3333 70.7188 68.3333H57.6979V94.375H47.2812V57.9167L47.3802 52.7083C48.0362 44.2055 51.8771 36.2635 58.1352 30.4699C64.3932 24.6763 72.6073 21.458 81.1354 21.4583H104.573ZM21.2396 0.625002C28.8933 0.62243 36.3536 3.02861 42.5635 7.50256C48.7734 11.9765 53.4178 18.2913 55.8385 25.5521C51.8537 28.93 48.589 33.0749 46.2385 37.7402C43.8879 42.4054 42.4997 47.4957 42.1562 52.7083H36.8646C27.1952 52.7083 17.9219 48.8672 11.0846 42.0299C4.24738 35.1927 0.40625 25.9194 0.40625 16.25V0.625002H21.2396Z" fill="#06BB93"/>
</svg>
