<svg width="170" height="175" viewBox="0 0 170 175" fill="none" xmlns="http://www.w3.org/2000/svg">
<ellipse cx="85" cy="87.5" rx="85" ry="87.5" fill="#1E1E27"/>
<path d="M97.5 118C99.5833 118 101.355 117.272 102.815 115.815C104.275 114.358 105.003 112.587 105 110.5C104.997 108.413 104.268 106.643 102.815 105.19C101.362 103.737 99.59 103.007 97.5 103C95.41 102.993 93.64 103.723 92.19 105.19C90.74 106.657 90.01 108.427 90 110.5C89.99 112.573 90.72 114.345 92.19 115.815C93.66 117.285 95.43 118.013 97.5 118ZM72.25 117.75L104.75 85.25L97.75 78.25L65.25 110.75L72.25 117.75ZM72.5 93C74.5833 93 76.355 92.2717 77.815 90.815C79.275 89.3583 80.0033 87.5867 80 85.5C79.9967 83.4133 79.2683 81.6433 77.815 80.19C76.3617 78.7367 74.59 78.0067 72.5 78C70.41 77.9933 68.64 78.7233 67.19 80.19C65.74 81.6567 65.01 83.4267 65 85.5C64.99 87.5733 65.72 89.345 67.19 90.815C68.66 92.285 70.43 93.0133 72.5 93ZM85 138C73.5833 138 64.0633 134.083 56.44 126.25C48.8167 118.417 45.0033 108.667 45 97C45 88.6667 48.3133 79.605 54.94 69.815C61.5667 60.025 71.5867 49.42 85 38C98.4167 49.4167 108.438 60.0217 115.065 69.815C121.692 79.6083 125.003 88.67 125 97C125 108.667 121.188 118.417 113.565 126.25C105.942 134.083 96.42 138 85 138ZM85 128C93.6667 128 100.833 125.062 106.5 119.185C112.167 113.308 115 105.913 115 97C115 90.9167 112.478 84.0417 107.435 76.375C102.392 68.7083 94.9133 60.3333 85 51.25C75.0833 60.3333 67.605 68.7083 62.565 76.375C57.525 84.0417 55.0033 90.9167 55 97C55 105.917 57.8333 113.313 63.5 119.19C69.1667 125.067 76.3333 128.003 85 128Z" fill="white"/>
</svg>
