<svg width="170" height="175" viewBox="0 0 170 175" fill="none" xmlns="http://www.w3.org/2000/svg">
<ellipse cx="85" cy="87.5" rx="85" ry="87.5" fill="#1E1E27"/>
<path d="M40 88H45M85 43V48M125 88H130M85 128V133M53 56L56.5 59.5M117 56L113.5 59.5M113.5 116.5L117 120M56.5 116.5L53 120M65 88C65 93.3043 67.1071 98.3914 70.8579 102.142C74.6086 105.893 79.6957 108 85 108C90.3043 108 95.3914 105.893 99.1421 102.142C102.893 98.3914 105 93.3043 105 88C105 82.6957 102.893 77.6086 99.1421 73.8579C95.3914 70.1071 90.3043 68 85 68C79.6957 68 74.6086 70.1071 70.8579 73.8579C67.1071 77.6086 65 82.6957 65 88Z" stroke="white" stroke-width="10" stroke-linecap="round" stroke-linejoin="round"/>
</svg>
