<svg width="170" height="175" viewBox="0 0 170 175" fill="none" xmlns="http://www.w3.org/2000/svg">
<ellipse cx="85" cy="87.5" rx="85" ry="87.5" fill="#1E1E27"/>
<path d="M73.75 92.725V50.5C73.75 46.5218 72.1696 42.7064 69.3566 39.8934C66.5436 37.0804 62.7282 35.5 58.75 35.5C54.7718 35.5 50.9564 37.0804 48.1434 39.8934C45.3304 42.7064 43.75 46.5218 43.75 50.5V92.725C39.1638 95.9184 35.7165 100.492 33.9097 105.78C32.103 111.069 32.0311 116.796 33.7046 122.128C35.3781 127.46 38.7096 132.119 43.2143 135.426C47.7189 138.734 53.1615 140.517 58.75 140.517C64.3385 140.517 69.7811 138.734 74.2857 135.426C78.7904 132.119 82.1219 127.46 83.7954 122.128C85.4689 116.796 85.397 111.069 83.5903 105.78C81.7835 100.492 78.3362 95.9184 73.75 92.725ZM58.75 43C60.7391 43 62.6468 43.7902 64.0533 45.1967C65.4598 46.6032 66.25 48.5109 66.25 50.5V76.75H51.25V50.5C51.25 48.5109 52.0402 46.6032 53.4467 45.1967C54.8532 43.7902 56.7609 43 58.75 43ZM58.75 133C54.6226 133 50.6107 131.638 47.3362 129.125C44.0618 126.612 41.708 123.09 40.6397 119.103C39.5715 115.116 39.8485 110.888 41.4279 107.075C43.0073 103.262 45.8007 100.076 49.375 98.0125L51.25 96.9625V84.25H66.25V96.9625L68.125 98.0125C71.6993 100.076 74.4927 103.262 76.0721 107.075C77.6515 110.888 77.9285 115.116 76.8603 119.103C75.792 123.09 73.4382 126.612 70.1638 129.125C66.8893 131.638 62.8774 133 58.75 133ZM100 43H137.5V50.5H100V43ZM100 65.5H126.25V73H100V65.5ZM100 88H137.5V95.5H100V88ZM100 110.5H126.25V118H100V110.5Z" fill="white"/>
</svg>
