<svg width="150" height="150" viewBox="0 0 150 150" fill="none" xmlns="http://www.w3.org/2000/svg">
<path d="M150 75C150 116.421 116.421 150 75 150C33.5786 150 0 116.421 0 75C0 33.5786 33.5786 0 75 0C116.421 0 150 33.5786 150 75Z" fill="#1E1E27"/>
<path d="M126.573 48.4583V61.4792C126.573 70.4579 123.006 79.0688 116.657 85.4177C110.308 91.7666 101.697 95.3333 92.7188 95.3333H79.6979V121.375H69.2812V84.9167L69.3802 79.7083C70.0362 71.2055 73.8771 63.2635 80.1352 57.4699C86.3932 51.6763 94.6073 48.458 103.135 48.4583H126.573ZM43.2396 27.625C50.8933 27.6224 58.3536 30.0286 64.5635 34.5026C70.7734 38.9765 75.4178 45.2913 77.8385 52.5521C73.8537 55.93 70.589 60.0749 68.2385 64.7402C65.8879 69.4054 64.4997 74.4957 64.1562 79.7083H58.8646C49.1952 79.7083 39.9219 75.8672 33.0846 69.0299C26.2474 62.1927 22.4063 52.9194 22.4062 43.25V27.625H43.2396Z" fill="#06BB93"/>
</svg>
