<svg width="53" height="18" viewBox="0 0 53 18" fill="none" xmlns="http://www.w3.org/2000/svg">
<path d="M17.9054 9C17.9054 13.9706 13.8971 18 8.9527 18C4.00826 18 0 13.9706 0 9C0 4.02944 4.00826 0 8.9527 0C13.8971 0 17.9054 4.02944 17.9054 9Z" fill="white"/>
<path d="M17.9054 9C17.9054 13.9706 13.8971 18 8.9527 18C4.00826 18 0 13.9706 0 9C0 4.02944 4.00826 0 8.9527 0C13.8971 0 17.9054 4.02944 17.9054 9Z" fill="#06BB93"/>
<path d="M53 9C53 13.9706 48.9917 18 44.0473 18C39.1029 18 35.0946 13.9706 35.0946 9C35.0946 4.02944 39.1029 0 44.0473 0C48.9917 0 53 4.02944 53 9Z" fill="white"/>
<path d="M53 9C53 13.9706 48.9917 18 44.0473 18C39.1029 18 35.0946 13.9706 35.0946 9C35.0946 4.02944 39.1029 0 44.0473 0C48.9917 0 53 4.02944 53 9Z" fill="#06BB93"/>
</svg>
